# xmcd
#
# Track frame offsets:
#	150
#	5044
#	16286
#	27535
#	38125
#	52198
#	64305
#	78446
#	90113
#	99886
#	113515
#	124503
#	137192
#	152000
#
# Disc length: 2209 seconds
#
# Revision: 0
# Processed by: cddbd v1.5.1PL2 Copyright (c) Steve Scherf et al.
# Submitted via: dBpowerAMP V4.0
#
DISCID=a9089f0e
DTITLE=Frankie Yale - Clean Slate
DYEAR=2005
DGENRE=Rap
TTITLE0=So Long
TTITLE1=Bitches
TTITLE2=Get Out Da Way
TTITLE3=Summer
TTITLE4=Where U From
TTITLE5=So Gutter
TTITLE6=Son Of A Gun
TTITLE7=The Pledge
TTITLE8=Early Mornin'
TTITLE9=Flag
TTITLE10=Real Talk
TTITLE11=Sincere
TTITLE12=Fuck You
TTITLE13=Not Like Me *BONUS
EXTD=
EXTT0=
EXTT1=
EXTT2=
EXTT3=
EXTT4=
EXTT5=
EXTT6=
EXTT7=
EXTT8=
EXTT9=
EXTT10=
EXTT11=
EXTT12=
EXTT13=
PLAYORDER=
